<svg xmlns="http://www.w3.org/2000/svg" width="24" height="24" fill="none" viewBox="0 0 24 24">
    <path fill="#2CC531" fill-rule="evenodd" d="M19.174 10.285l.118-.107c.409-.37.612-.555.698-.774.079-.202.09-.424.031-.633-.063-.227-.248-.43-.618-.839l-.215-.237c-.37-.408-.554-.612-.774-.698-.202-.078-.424-.09-.633-.03-.227.063-.43.248-.839.617l-.118.108-5.394 4.887c-.39.354-.585.53-.804.595-.201.06-.416.054-.614-.015-.215-.075-.402-.261-.774-.634l-.959-.958-.15-.151c-.378-.378-.567-.566-.785-.642-.2-.068-.417-.072-.62-.01-.22.068-.415.25-.805.614l-.233.218c-.415.387-.622.581-.704.808-.075.208-.079.435-.01.646.073.23.274.43.676.832l.074.074 3.22 3.219 1.155 1.275c.016.018.045.02.063.003l.022-.02c.005-.005.013-.005.018 0 .005.005.013.005.018 0l1.162-1.085.043-.04 7.75-7.023z" clip-rule="evenodd"/>
</svg>
