<svg xmlns="http://www.w3.org/2000/svg" width="40" height="20" fill="none" viewBox="0 0 40 20">
    <path fill="#fff" d="M40 0H0v20h40V0z"/>
    <path fill="#71716F" d="M3.148 14.345h.257l-.24.996c-.019.054-.027.111-.023.169.003.057.018.113.044.164.032.04.074.072.122.091.047.02.1.026.15.02.118.005.234-.035.324-.11.093-.09.156-.207.18-.334l.238-.995h.26l-.244 1.018c-.036.193-.136.368-.284.497-.152.116-.34.175-.532.166-.22 0-.371-.055-.453-.165-.082-.11-.092-.278-.043-.498l.244-1.019zM4.423 15.985l.408-1.704.775 1.002c.021.028.042.059.062.092.02.034.043.069.064.11l.272-1.138h.24l-.411 1.701-.792-1.018c-.021-.028-.04-.057-.059-.087-.018-.03-.035-.061-.05-.093l-.274 1.14-.235-.005zM6.223 15.985l.392-1.64h.26l-.394 1.64h-.258zM6.856 15.985l.393-1.64h.892l-.055.227h-.631l-.099.409h.632l-.056.234h-.631l-.185.77h-.26zM8.034 15.985l.392-1.64h.26l-.393 1.64h-.259zM8.668 15.985l.392-1.64h.891l-.053.227h-.633l-.098.41h.632l-.056.235h-.632l-.13.53h.632l-.056.238h-.889zM9.856 15.985l.393-1.64h.35c.16-.006.317.006.473.035.081.02.155.062.216.119.076.075.126.172.143.278.02.13.013.262-.022.389-.031.137-.087.268-.164.386-.072.11-.167.205-.277.277-.082.055-.172.095-.267.119-.14.027-.283.04-.425.035h-.42v.002zm.318-.24h.219c.093.002.186-.006.277-.026.064-.016.124-.044.177-.083.074-.053.137-.12.185-.197.052-.086.09-.18.111-.278.025-.09.032-.185.022-.278-.01-.073-.043-.142-.093-.197-.039-.04-.088-.07-.142-.083-.095-.02-.192-.028-.29-.024h-.184l-.282 1.165zM12.605 15.25l-.176.735h-.244l.393-1.64h.393c.084-.002.17.004.252.02.048.01.092.033.128.065.043.04.071.095.08.153.014.071.01.144-.007.213-.018.077-.05.15-.093.216-.04.062-.094.114-.156.155-.048.03-.102.052-.158.063-.086.015-.174.021-.261.02h-.151zm.069-.22h.066c.103.009.205-.008.3-.048.03-.018.055-.043.074-.073.02-.03.033-.062.038-.097.013-.03.017-.064.011-.097-.005-.033-.02-.064-.043-.088-.083-.046-.177-.064-.27-.054h-.067l-.11.457zM14.309 15.985l-.08-.422h-.634l-.286.422h-.278l1.183-1.704.364 1.704h-.269zm-.564-.648h.445l-.074-.37c0-.023-.007-.051-.01-.082-.002-.03 0-.065-.006-.103l-.051.1c-.017.031-.034.059-.051.085l-.253.37zM14.956 15.985l.179-.75-.325-.89h.273l.202.556.016.056c.007.023.013.048.019.075.016-.026.033-.05.05-.074l.05-.064.476-.55h.26l-.763.89-.18.75-.257.001zM17.433 15.175c0-.012 0-.047.011-.105.011-.057.01-.088.013-.12-.016.04-.034.077-.055.113-.02.038-.045.076-.072.115l-.628.873-.204-.892c-.008-.036-.015-.07-.02-.105l-.009-.103c-.01.037-.02.073-.034.108-.014.04-.03.08-.05.119l-.367.807h-.239l.787-1.71.224 1.036c0 .016.008.044.013.082l.02.14c.028-.047.066-.106.116-.178l.03-.046.716-1.033-.023 1.71h-.241l.012-.811zM17.865 15.985l.393-1.64h.892l-.054.227h-.633l-.098.41h.632l-.056.235h-.632l-.127.53h.632l-.057.238h-.892zM19.055 15.985l.408-1.704.775 1.002c.02.028.042.059.062.092.02.034.042.069.064.11l.272-1.138h.24l-.407 1.703-.792-1.018c-.021-.028-.041-.057-.06-.087-.018-.03-.035-.061-.05-.093l-.273 1.14-.24-.007zM21.705 14.572l-.338 1.413h-.256l.338-1.413h-.43l.053-.226h1.111l-.054.226h-.424zM21.974 15.656l.232-.098c-.002.031.004.062.015.091.012.03.03.055.052.077.053.04.119.06.185.057.073.002.143-.022.2-.066.056-.044.095-.107.11-.176.024-.093-.034-.186-.17-.259l-.045-.024c-.116-.055-.218-.136-.296-.239-.02-.04-.034-.083-.038-.128-.005-.045 0-.09.013-.134.03-.13.104-.244.21-.324.109-.083.242-.127.378-.125.098-.005.195.02.278.07.034.023.062.053.082.088.02.034.032.073.035.114l-.229.107c-.014-.044-.041-.084-.078-.113-.036-.025-.079-.038-.123-.036-.066-.003-.131.017-.185.056-.048.038-.08.091-.093.15-.023.098.045.186.205.278l.029.016c.11.047.206.123.277.22.043.082.052.177.026.266-.032.147-.114.277-.232.37-.12.092-.268.14-.42.137-.111.009-.222-.024-.311-.092-.038-.036-.068-.08-.086-.13-.018-.048-.026-.1-.02-.153zM23.894 15.985l.391-1.64h.26l-.392 1.64h-.26zM24.526 15.985l.409-1.704.775 1.002c.02.028.041.059.062.092.02.034.042.069.064.11l.276-1.14h.24l-.408 1.703-.792-1.018c-.021-.028-.04-.057-.059-.087-.018-.03-.035-.061-.05-.093l-.279 1.14-.238-.005zM27.176 14.572l-.338 1.413h-.264l.34-1.413h-.426l.055-.226h1.106l-.054.226h-.419zM27.459 15.985l.392-1.64h.891l-.053.227h-.634l-.092.41h.632l-.056.235h-.632l-.13.53h.632l-.056.238h-.894zM29.068 15.252l-.176.733h-.244l.393-1.64h.363c.081-.002.162.005.242.022.05.011.095.036.133.07.041.042.068.096.078.154.012.068.009.139-.01.206-.023.117-.081.225-.166.309-.085.076-.192.123-.306.133l.37.746h-.293l-.355-.733h-.03zm.066-.207h.047c.098.007.195-.01.285-.05.03-.02.054-.046.073-.076.019-.03.031-.063.037-.098.013-.032.017-.066.012-.1-.004-.033-.018-.065-.039-.091-.076-.047-.166-.066-.255-.056h-.047l-.113.47zM29.901 15.985l.392-1.64h.892l-.054.227h-.632l-.098.409h.632l-.056.234h-.632l-.185.77H29.9zM32.05 15.985l-.081-.422h-.633l-.287.422h-.273l1.182-1.704.37 1.704h-.279zm-.564-.648h.444l-.074-.37c0-.023-.007-.051-.01-.082l-.006-.103c-.016.035-.034.068-.052.1-.017.031-.033.059-.05.085l-.252.37zM34.015 14.744c-.055-.062-.123-.111-.2-.144-.077-.033-.161-.05-.246-.048-.171-.002-.337.059-.467.17-.137.115-.233.273-.271.447-.024.073-.03.15-.021.225.01.076.035.148.076.213.04.057.095.103.158.133.064.03.134.044.204.04.096 0 .192-.018.283-.052.1-.039.196-.091.283-.156l-.072.301c-.16.102-.344.155-.533.154-.111.002-.221-.019-.324-.062-.092-.04-.171-.104-.23-.185-.06-.082-.1-.177-.113-.278-.016-.114-.01-.229.018-.34.029-.12.078-.235.145-.339.067-.105.15-.2.248-.278.094-.078.201-.14.316-.185.112-.041.23-.062.349-.062.087 0 .175.013.258.042.08.029.153.072.217.128l-.078.276zM34.04 15.985l.393-1.64h.891l-.054.227h-.632l-.1.41h.632l-.057.235h-.631l-.127.53h.631l-.056.238h-.89z"/>
    <path fill="#6E6F71" d="M29.302 12.918h-1.785L30 3.949h1.785l-2.483 8.969zM28.375 4.233c-.123-.17-.315-.257-.574-.257h-9.815l-.487 1.76h8.932l-.52 1.876h-8.933l-1.482 5.35h1.786l.995-3.59h8.032c.259-.003.509-.094.71-.257.212-.157.365-.38.436-.635l.995-3.592c.072-.266.047-.484-.075-.655zM14.456 12.357c-.048.173-.151.325-.294.434-.143.109-.317.167-.497.167H4.453c-.108.008-.216-.011-.314-.056-.099-.045-.184-.114-.25-.2-.061-.092-.1-.198-.114-.308-.014-.11-.001-.223.036-.327l2.252-8.092H7.85L5.84 11.204h7.15L15 3.975h1.787l-2.332 8.383z"/>
    <path fill="#434244" d="M34.87 3.966l2.26 4.495-4.752 4.495 2.492-8.99z"/>
    <path fill="#6D6E71" d="M33.284 3.966l2.26 4.495-4.755 4.495 2.495-8.99z"/>
</svg>
